<?xml version="1.0" encoding="UTF-8"?>
<!DOCTYPE svg PUBLIC "-//W3C//DTD SVG 1.1//EN" "http://www.w3.org/Graphics/SVG/1.1/DTD/svg11.dtd">
<!-- Creator: CorelDRAW -->
<svg xmlns="http://www.w3.org/2000/svg" xml:space="preserve" width="6mm" height="6mm" version="1.1" style="shape-rendering:geometricPrecision; text-rendering:geometricPrecision; image-rendering:optimizeQuality; fill-rule:evenodd; clip-rule:evenodd"
viewBox="0 0 600 600"
 xmlns:xlink="http://www.w3.org/1999/xlink"
 xmlns:xodm="http://www.corel.com/coreldraw/odm/2003">
 <defs>
  <style type="text/css">
   <![CDATA[
    .fil1 {fill:none}
    .fil0 {fill:black}
   ]]>
  </style>
 </defs>
 <g id="Camada_x0020_1">
  <metadata id="CorelCorpID_0Corel-Layer"/>
  <g id="_1923585944288">
   <path class="fil0" d="M22.26 111.01l0 394.82c0,8.34 3.69,20.53 6.52,26.56 3.8,8.1 8.49,13.77 14.41,19.7 11.73,11.73 28.47,20.93 46.26,20.93l195.35 0 0 -189.15 -45.49 0c-11.11,0 -15.5,-4.39 -15.5,-15.5l0 -54.78c0,-7.48 4.13,-13.44 11.37,-13.44l49.62 0 0 -65.12c0,-29.65 12.08,-56.14 27.13,-71.05 34.63,-34.36 79.56,-28.17 125.83,-28.17 5.2,0 10.34,5.14 10.34,10.34l0 52.71c0,12.54 -14.98,10.34 -21.7,10.33 -67.88,-0.04 -59.96,11.5 -59.96,90.96l73.39 0c17.5,0 8.71,26.48 7.26,43.44 -0.66,7.74 -1.78,31.43 -6.88,36.53 -2.99,2.99 -6.21,3.75 -11.75,3.75l-62.02 0 0 189.15 117.83 0c24.96,0 49.77,-18.47 60.33,-39.94 2.98,-6.04 6.86,-18.74 6.86,-27.25l0 -394.82c0,-33.97 -33.28,-67.19 -67.19,-67.19l-394.82 0c-24.96,0 -49.77,18.47 -60.34,39.93 -2.98,6.05 -6.85,18.75 -6.85,27.26z"/>
   <rect class="fil1" x="22.73" y="9.35" width="530.6" height="579.31"/>
  </g>
 </g>
</svg>
