<?xml version="1.0" encoding="UTF-8"?>
<!DOCTYPE svg PUBLIC "-//W3C//DTD SVG 1.1//EN" "http://www.w3.org/Graphics/SVG/1.1/DTD/svg11.dtd">
<!-- Creator: CorelDRAW -->
<svg xmlns="http://www.w3.org/2000/svg" xml:space="preserve" width="6mm" height="6mm" version="1.1" style="shape-rendering:geometricPrecision; text-rendering:geometricPrecision; image-rendering:optimizeQuality; fill-rule:evenodd; clip-rule:evenodd"
viewBox="0 0 600 600"
 xmlns:xlink="http://www.w3.org/1999/xlink"
 xmlns:xodm="http://www.corel.com/coreldraw/odm/2003">
 <defs>
  <style type="text/css">
   <![CDATA[
    .fil1 {fill:none}
    .fil0 {fill:black;fill-rule:nonzero}
   ]]>
  </style>
 </defs>
 <g id="Camada_x0020_1">
  <metadata id="CorelCorpID_0Corel-Layer"/>
  <g id="_1923588832976">
   <path class="fil0" d="M296.23 46.1c-146.18,0 -264.58,118.4 -264.58,264.58 0.01,0.03 0.01,0.1 0.01,0.13 0,113.86 72.89,214.96 180.91,250.89 13.23,2.3 18.18,-5.64 18.18,-12.59 0,-6.27 -0.34,-27.09 -0.34,-49.27 -66.46,12.25 -83.66,-16.19 -88.95,-31.09 -2.99,-7.62 -15.88,-31.09 -27.12,-37.39 -9.26,-4.95 -22.49,-17.2 -0.34,-17.52 20.85,-0.34 35.72,19.18 40.69,27.12 23.81,40.01 61.86,28.76 77.05,21.83 2.33,-17.2 9.26,-28.76 16.88,-35.37 -58.87,-6.61 -120.39,-29.45 -120.39,-130.65 0,-28.79 10.24,-52.57 27.12,-71.12 -2.65,-6.61 -11.91,-33.73 2.65,-70.11 0,0 22.15,-6.93 72.76,27.15 21.36,-5.9 43.48,-8.93 65.65,-8.93 0.15,0 0.33,0 0.48,0 22.49,0 44.98,2.96 66.15,8.92 50.59,-34.4 72.76,-27.09 72.76,-27.09 14.55,36.38 5.29,63.5 2.65,70.11 16.85,18.52 27.12,41.99 27.12,71.09 0,101.55 -61.83,124.04 -120.7,130.65 9.58,8.26 17.86,24.13 17.86,48.95 0,35.37 -0.34,63.82 -0.34,72.76 0,6.93 4.97,15.19 18.2,12.54 107.66,-36.33 180.23,-137.37 180.23,-251.02 0,-146.18 -118.4,-264.58 -264.58,-264.58l-0.01 0.01z"/>
   <rect class="fil1" x="28.82" y="6.84" width="530.6" height="579.31"/>
  </g>
 </g>
</svg>
