<?xml version="1.0" encoding="UTF-8"?>
<!DOCTYPE svg PUBLIC "-//W3C//DTD SVG 1.1//EN" "http://www.w3.org/Graphics/SVG/1.1/DTD/svg11.dtd">
<!-- Creator: CorelDRAW -->
<svg xmlns="http://www.w3.org/2000/svg" xml:space="preserve" width="6mm" height="6mm" version="1.1" style="shape-rendering:geometricPrecision; text-rendering:geometricPrecision; image-rendering:optimizeQuality; fill-rule:evenodd; clip-rule:evenodd"
viewBox="0 0 600 600"
 xmlns:xlink="http://www.w3.org/1999/xlink"
 xmlns:xodm="http://www.corel.com/coreldraw/odm/2003">
 <defs>
  <style type="text/css">
   <![CDATA[
    .fil1 {fill:none}
    .fil0 {fill:black;fill-rule:nonzero}
   ]]>
  </style>
 </defs>
 <g id="Camada_x0020_1">
  <metadata id="CorelCorpID_0Corel-Layer"/>
  <g id="_1923587785024">
   <path class="fil0" d="M132.57 94.12c0,30.61 -24.81,55.41 -55.41,55.41 -30.61,0 -55.43,-24.82 -55.43,-55.43 0,-0.01 0,-0.02 0,-0.03 0.01,-30.59 24.82,-55.39 55.43,-55.39 30.6,0 55.42,24.82 55.42,55.42 0,0.01 0,0.02 0,0.03l-0.01 -0.01zm1.67 96.44l-110.86 0 0 346.95 110.86 0 0 -346.95zm175.14 0l-110.3 0 0 346.95 109.19 0 0 -182.06c0,-101.43 132.18,-110.84 132.18,0l-0.01 182.06 109.46 0 0 -219.75c0,-170.98 -195.65,-164.6 -241.65,-80.63l1.11 -46.56 0.02 -0.01z"/>
   <rect class="fil1" x="19.16" y="14.19" width="530.6" height="579.31"/>
  </g>
 </g>
</svg>
